PathFileType	4	(X/Y/Z)	/Users/visionmauri/Downloads/Videos/OAW04-top_Sports2D/OAW04-top_Sports2D_px_person00.trc
DataRate	CameraRate	NumFrames	NumMarkers	Units	OrigDataRate	OrigDataStartFrame	OrigNumFrames
30.0	30.0	7	22	m	30.0	0	2367
Frame#	Time	Hip			RHip			RKnee			RAnkle			RBigToe			RSmallToe			RHeel			LHip			LKnee			LAnkle			LBigToe			LSmallToe			LHeel			Neck			Head			Nose			RShoulder			RElbow			RWrist			LShoulder			LElbow			LWrist			
		X1	Y1	Z1	X2	Y2	Z2	X3	Y3	Z3	X4	Y4	Z4	X5	Y5	Z5	X6	Y6	Z6	X7	Y7	Z7	X8	Y8	Z8	X9	Y9	Z9	X10	Y10	Z10	X11	Y11	Z11	X12	Y12	Z12	X13	Y13	Z13	X14	Y14	Z14	X15	Y15	Z15	X16	Y16	Z16	X17	Y17	Z17	X18	Y18	Z18	X19	Y19	Z19	X20	Y20	Z20	X21	Y21	Z21	X22	Y22	Z22
0	0.0	630.5766860255229	759.623429503364	0.0	621.241456586334	759.623332193598	0.0	621.7600800114839	800.0759782794787	0.0	620.7228257399278	837.9356488692767	0.0	620.7228419492166	849.3453931022959	0.0	616.5738151203865	848.3081396358871	0.0	621.760022227619	843.6405394941846	0.0	640.9491742342806	758.5860835306294	0.0	638.8747160191347	800.0760735122169	0.0	633.1697773422604	837.9356384333897	0.0	631.0953966980638	849.3453925856072	0.0	636.8002457054793	848.8267816208416	0.0	632.1325239124488	843.1218674351395	0.0	630.0580902874317	704.6490254378416	0.0	629.5394584494073	678.1990478547834	0.0	628.5021789108662	700.5000516166688	0.0	611.9062500771964	709.3166955913073	0.0	604.6454407195753	739.3968425814695	0.0	600.4964276620201	764.8094455020731	0.0	648.7286019559001	707.7608363089846	0.0	658.0637946327889	736.8037578088026	0.0	658.0639003764567	761.6977870918332	0.0
1	0.033347421808960276	630.6846409916359	759.6334433051635	0.0	621.1436928291658	759.8041582267516	0.0	621.6514345692299	799.8301747567647	0.0	620.7927608937625	837.3945278602796	0.0	620.7789510837443	849.1978567025693	0.0	616.4540202239522	848.1624540970971	0.0	621.6449260380183	843.4535002861165	0.0	640.907668019411	758.7817353056688	0.0	638.9807316612969	799.6273847610264	0.0	633.2697403435031	837.401644331918	0.0	631.376984551452	849.1976507580055	0.0	636.9242046518837	848.8452507487285	0.0	632.2278236042979	842.9723975862217	0.0	629.9871708975288	704.4360945842617	0.0	629.5117984076476	678.0809678954323	0.0	628.6271581417462	700.6270754835142	0.0	611.7798347882806	709.1646285596655	0.0	604.8724630474518	739.5044922963913	0.0	601.0380494773545	764.789316491455	0.0	648.677742177168	707.4588168975586	0.0	657.8568752580667	736.9471941079667	0.0	657.510223731991	761.9015313602688	0.0
2	0.06669484361792055	630.784749290859	759.6196886104793	0.0	621.0191830894875	759.9885085712496	0.0	621.5304920268231	799.6760529956332	0.0	620.8661263092254	836.9583259964799	0.0	620.718268369937	849.1890844204806	0.0	616.181986810269	848.1501205921328	0.0	621.5239834021179	843.2949930516417	0.0	640.8397895907457	759.0973280914033	0.0	639.0021842692582	799.2788950958155	0.0	633.3797470096515	836.9653294425665	0.0	631.8125348380061	849.1899066804885	0.0	637.1782242356268	848.8976883353017	0.0	632.3348081160462	842.9433478428945	0.0	630.0269242880829	703.9953017210125	0.0	629.5462805137805	677.413440779669	0.0	628.8580916088748	700.298514059005	0.0	611.7678173840287	708.8703646733624	0.0	605.2313293282509	739.3565185256451	0.0	601.7867182179878	764.5186086048643	0.0	648.6888940386676	707.2324853784368	0.0	657.6459907984848	737.1976456797755	0.0	656.9020257043613	762.222247875085	0.0
3	0.10004226542688083	630.8012559490577	759.5316484949359	0.0	620.8802281555402	760.079665764519	0.0	621.4408477517212	799.6662869326136	0.0	620.9131697306057	836.8610307889668	0.0	620.534608789919	849.3844949323787	0.0	615.7892990443287	848.3259353800303	0.0	621.4587073116662	843.2908553826921	0.0	640.7177208832805	759.4036163698203	0.0	638.9116637009867	799.2147233596116	0.0	633.45919786579	836.8412546223021	0.0	632.2873205841262	849.3873743219287	0.0	637.4911029317354	848.9996673481872	0.0	632.419725091868	843.0713823196243	0.0	630.1776064544234	703.542373036696	0.0	629.5243297025504	675.9975391898831	0.0	629.0726341047973	699.5915564856189	0.0	611.9170066619387	708.5243179985243	0.0	605.6048049108288	738.9163089981591	0.0	602.5778005015015	764.0350688923056	0.0	648.78551289593	707.1793679934633	0.0	657.529981399765	737.4451327496304	0.0	656.4460610888301	762.5296575392997	0.0
4	0.1333896872358411	630.6873166700341	759.325807187183	0.0	620.7272577287583	760.0236673868584	0.0	621.4055440292093	799.6905147516113	0.0	620.9208697184341	837.0985072433643	0.0	620.3363734472065	849.698270233977	0.0	615.3904741653671	848.595260747685	0.0	621.489930627069	843.507529686479	0.0	640.5127071954504	759.5126193871675	0.0	638.8036213249935	799.4062730810073	0.0	633.4875445399617	837.0082667410853	0.0	632.646583210958	849.6993702081792	0.0	637.7191598926206	849.1498544843489	0.0	632.4684192285231	843.248133680386	0.0	630.3134495102508	703.4682182252618	0.0	629.2168231245913	673.9610359097746	0.0	629.0666284803002	699.0380175535673	0.0	612.1376385005597	708.30155990115	0.0	605.8219934443748	738.3981993707841	0.0	603.2358494561569	763.5954169965976	0.0	648.8780632091236	707.2402397565594	0.0	657.5554530416695	737.5199441561115	0.0	656.2329884029992	762.6528608803181	0.0
5	0.16673710904480138	630.4834618006718	759.0138455126408	0.0	620.5432338804874	759.8878434006388	0.0	621.3949850774904	799.6140654663917	0.0	620.9109585792644	837.4232521725373	0.0	620.1910177051028	850.0252448901042	0.0	615.0060553748701	848.8548115409855	0.0	621.5880501336774	843.87729098712	0.0	640.226395313474	759.4311637691455	0.0	638.7807582577673	799.6527167177151	0.0	633.4936050158498	837.2289852656942	0.0	632.9323137950652	850.0125122985219	0.0	637.8586237160847	849.3261879253785	0.0	632.50894927846	843.3741235644092	0.0	630.3468946490821	703.8288358360802	0.0	628.5540177325496	671.4569723393602	0.0	628.8129884582823	698.9015244588426	0.0	612.3281637306354	708.2225942134969	0.0	605.8928007220904	737.9686615724955	0.0	603.8271385060788	763.3222897044303	0.0	648.841661713332	707.2778553034342	0.0	657.6522222403111	737.4248126582563	0.0	656.1057722953999	762.6279833671612	0.0
6	0.20008453085376166	630.2582434881634	758.6808709589495	0.0	620.3381811017347	759.7720291970008	0.0	621.3825298471825	799.455228469685	0.0	620.9022294945739	837.6414438137552	0.0	620.0880500063312	850.3200438347164	0.0	614.6267384945517	849.0734599089675	0.0	621.6929518737987	844.2773675097524	0.0	639.9070710753834	759.2898578218056	0.0	638.8303059261078	799.8591388867362	0.0	633.5037574861527	837.3586131395125	0.0	633.2209670591786	850.2903865456045	0.0	637.9763795435442	849.4659053499504	0.0	632.556400784015	843.4380741350138	0.0	630.3287617895523	704.3323930749222	0.0	627.7596524025105	668.8054072991545	0.0	628.4814475873088	698.9747519601418	0.0	612.4982708088878	708.1948824372059	0.0	605.9233000334118	737.5983965382596	0.0	604.4457654634197	763.1029133762923	0.0	648.6871059402421	707.2667224262715	0.0	657.7447903640893	737.2673425168051	0.0	655.9456704110708	762.5441161837078	0.0
